<svg xmlns="http://www.w3.org/2000/svg" xmlns:xlink="http://www.w3.org/1999/xlink" width="1000" zoomAndPan="magnify" viewBox="0 0 750 749.999995" height="1000" preserveAspectRatio="xMidYMid meet" version="1.0"><defs><g/><clipPath id="5ffabaee55"><path d="M 123.636719 392 L 146 392 L 146 415 L 123.636719 415 Z M 123.636719 392 " clip-rule="nonzero"/></clipPath><clipPath id="3d1b1554da"><path d="M 123.636719 353.226562 L 146 353.226562 L 146 375 L 123.636719 375 Z M 123.636719 353.226562 " clip-rule="nonzero"/></clipPath><clipPath id="85ed140f89"><path d="M 163 353.226562 L 185 353.226562 L 185 375 L 163 375 Z M 163 353.226562 " clip-rule="nonzero"/></clipPath><clipPath id="878a8bad75"><path d="M 123.636719 353.226562 L 185 353.226562 L 185 415 L 123.636719 415 Z M 123.636719 353.226562 " clip-rule="nonzero"/></clipPath><clipPath id="4212c5f4a3"><path d="M 196 353.226562 L 246 353.226562 L 246 403 L 196 403 Z M 196 353.226562 " clip-rule="nonzero"/></clipPath><clipPath id="c903d83576"><path d="M 123.636719 425 L 174 425 L 174 476 L 123.636719 476 Z M 123.636719 425 " clip-rule="nonzero"/></clipPath><clipPath id="2144010cc9"><path d="M 316 456 L 339 456 L 339 477.726562 L 316 477.726562 Z M 316 456 " clip-rule="nonzero"/></clipPath><clipPath id="db08c403ea"><path d="M 356 416 L 377.886719 416 L 377.886719 439 L 356 439 Z M 356 416 " clip-rule="nonzero"/></clipPath><clipPath id="3afafdf80b"><path d="M 316 416 L 377.886719 416 L 377.886719 477.726562 L 316 477.726562 Z M 316 416 " clip-rule="nonzero"/></clipPath><clipPath id="58196c00e5"><path d="M 356 456 L 377.886719 456 L 377.886719 477.726562 L 356 477.726562 Z M 356 456 " clip-rule="nonzero"/></clipPath><clipPath id="4dc95a0446"><path d="M 328 355 L 377.886719 355 L 377.886719 406 L 328 406 Z M 328 355 " clip-rule="nonzero"/></clipPath><clipPath id="310efd0117"><path d="M 255 428 L 306 428 L 306 477.726562 L 255 477.726562 Z M 255 428 " clip-rule="nonzero"/></clipPath><clipPath id="37192a8ca6"><rect x="0" width="222" y="0" height="149"/></clipPath><clipPath id="eb74747e0d"><rect x="0" width="255" y="0" height="111"/></clipPath></defs><g clip-path="url(#5ffabaee55)"><path fill="#f8231d" d="M 145.117188 414.332031 L 138.402344 414.332031 L 132.800781 408.714844 L 132.800781 414.332031 L 123.640625 414.332031 L 123.640625 392.816406 Z M 145.117188 414.332031 " fill-opacity="1" fill-rule="nonzero"/></g><g clip-path="url(#3d1b1554da)"><path fill="#f8231d" d="M 145.117188 353.242188 L 123.640625 374.769531 L 123.640625 353.242188 L 132.800781 353.242188 L 132.800781 358.863281 L 138.402344 353.242188 Z M 145.117188 353.242188 " fill-opacity="1" fill-rule="nonzero"/></g><g clip-path="url(#85ed140f89)"><path fill="#f8231d" d="M 184.621094 353.242188 L 184.621094 374.769531 L 163.144531 353.242188 L 169.851562 353.242188 L 175.460938 358.863281 L 175.460938 353.242188 Z M 184.621094 353.242188 " fill-opacity="1" fill-rule="nonzero"/></g><g clip-path="url(#878a8bad75)"><path fill="#ffb300" d="M 151.386719 353.242188 L 123.640625 381.042969 L 123.640625 386.542969 L 151.386719 414.332031 L 156.875 414.332031 L 184.621094 386.542969 L 184.621094 381.042969 L 156.875 353.242188 Z M 154.03125 410.527344 L 127.246094 383.683594 L 154.03125 356.84375 L 180.816406 383.683594 Z M 154.03125 410.527344 " fill-opacity="1" fill-rule="nonzero"/></g><path fill="#f8231d" d="M 184.621094 392.816406 L 184.621094 414.332031 L 175.460938 414.332031 L 175.460938 408.714844 L 169.863281 414.332031 L 163.144531 414.332031 Z M 184.621094 392.816406 " fill-opacity="1" fill-rule="nonzero"/><path fill="#007e40" d="M 154.027344 402.917969 L 134.835938 383.6875 L 154.027344 364.457031 L 173.222656 383.6875 Z M 154.027344 402.917969 " fill-opacity="1" fill-rule="nonzero"/><path fill="#f8231d" d="M 245.695312 462.859375 L 245.695312 456.230469 L 226.4375 475.527344 L 233.054688 475.527344 Z M 245.695312 462.859375 " fill-opacity="1" fill-rule="nonzero"/><path fill="#ffb300" d="M 219.824219 475.527344 L 245.695312 449.601562 L 245.695312 440.359375 L 219.824219 414.433594 L 210.597656 414.433594 L 184.722656 440.359375 L 184.722656 449.601562 L 210.597656 475.527344 Z M 215.210938 416.636719 L 243.5 444.980469 L 215.210938 473.324219 L 186.921875 444.980469 Z M 215.210938 416.636719 " fill-opacity="1" fill-rule="nonzero"/><path fill="#f8231d" d="M 203.984375 414.433594 L 197.367188 414.433594 L 184.722656 427.101562 L 184.722656 433.730469 Z M 203.984375 414.433594 " fill-opacity="1" fill-rule="nonzero"/><path fill="#007e40" d="M 245.695312 433.730469 L 245.695312 414.433594 L 226.4375 414.433594 Z M 245.695312 433.730469 " fill-opacity="1" fill-rule="nonzero"/><path fill="#007e40" d="M 184.722656 456.230469 L 184.722656 475.527344 L 203.984375 475.527344 Z M 184.722656 456.230469 " fill-opacity="1" fill-rule="nonzero"/><g clip-path="url(#4212c5f4a3)"><path fill="#f8231d" d="M 196.160156 353.34375 L 245.695312 353.34375 L 245.695312 402.976562 L 196.160156 402.976562 Z M 196.160156 353.34375 " fill-opacity="1" fill-rule="nonzero"/></g><g clip-path="url(#c903d83576)"><path fill="#007e40" d="M 123.75 425.894531 L 173.289062 425.894531 L 173.289062 475.527344 L 123.75 475.527344 Z M 123.75 425.894531 " fill-opacity="1" fill-rule="nonzero"/></g><g clip-path="url(#2144010cc9)"><path fill="#f8231d" d="M 338.390625 477.730469 L 331.675781 477.730469 L 326.074219 472.109375 L 326.074219 477.730469 L 316.914062 477.730469 L 316.914062 456.210938 Z M 338.390625 477.730469 " fill-opacity="1" fill-rule="nonzero"/></g><path fill="#f8231d" d="M 338.390625 416.636719 L 316.914062 438.164062 L 316.914062 416.636719 L 326.074219 416.636719 L 326.074219 422.257812 L 331.675781 416.636719 Z M 338.390625 416.636719 " fill-opacity="1" fill-rule="nonzero"/><g clip-path="url(#db08c403ea)"><path fill="#f8231d" d="M 377.898438 416.636719 L 377.898438 438.164062 L 356.417969 416.636719 L 363.128906 416.636719 L 368.738281 422.257812 L 368.738281 416.636719 Z M 377.898438 416.636719 " fill-opacity="1" fill-rule="nonzero"/></g><g clip-path="url(#3afafdf80b)"><path fill="#ffb300" d="M 344.660156 416.636719 L 316.914062 444.4375 L 316.914062 449.9375 L 344.660156 477.730469 L 350.152344 477.730469 L 377.898438 449.9375 L 377.898438 444.4375 L 350.152344 416.636719 Z M 347.304688 473.925781 L 320.519531 447.078125 L 347.304688 420.238281 L 374.089844 447.078125 Z M 347.304688 473.925781 " fill-opacity="1" fill-rule="nonzero"/></g><g clip-path="url(#58196c00e5)"><path fill="#f8231d" d="M 377.898438 456.210938 L 377.898438 477.730469 L 368.738281 477.730469 L 368.738281 472.109375 L 363.136719 477.730469 L 356.417969 477.730469 Z M 377.898438 456.210938 " fill-opacity="1" fill-rule="nonzero"/></g><path fill="#007e40" d="M 347.304688 466.316406 L 328.109375 447.085938 L 347.304688 427.855469 L 366.496094 447.085938 Z M 347.304688 466.316406 " fill-opacity="1" fill-rule="nonzero"/><path fill="#f8231d" d="M 286.433594 369.40625 L 269.777344 386.085938 L 286.433594 402.773438 L 303.078125 386.085938 Z M 286.433594 369.40625 " fill-opacity="1" fill-rule="nonzero"/><path fill="#ffb300" d="M 316.914062 381.484375 L 291.027344 355.542969 L 282.050781 355.542969 L 269.851562 367.769531 L 269.851562 355.542969 L 263.195312 355.542969 L 263.195312 362.636719 L 256.113281 355.542969 L 255.941406 355.542969 L 255.941406 390.699219 L 281.832031 416.636719 L 290.804688 416.636719 L 303.007812 404.410156 L 303.007812 416.636719 L 309.664062 416.636719 L 309.664062 409.542969 L 316.742188 416.636719 L 316.914062 416.636719 Z M 260.609375 377.042969 C 259.179688 377.042969 258.023438 375.882812 258.023438 374.449219 C 258.023438 373.019531 259.179688 371.859375 260.609375 371.859375 C 262.035156 371.859375 263.195312 373.019531 263.195312 374.449219 C 263.195312 375.882812 262.035156 377.042969 260.609375 377.042969 Z M 286.433594 409.375 L 263.199219 386.085938 L 286.433594 362.804688 L 309.667969 386.085938 Z M 312.25 400.320312 C 310.820312 400.320312 309.664062 399.160156 309.664062 397.730469 C 309.664062 396.300781 310.820312 395.140625 312.25 395.140625 C 313.675781 395.140625 314.835938 396.300781 314.835938 397.730469 C 314.835938 399.160156 313.675781 400.320312 312.25 400.320312 Z M 312.25 400.320312 " fill-opacity="1" fill-rule="nonzero"/><path fill="#007e40" d="M 255.941406 397.730469 L 255.941406 416.636719 L 274.8125 416.636719 Z M 255.941406 397.730469 " fill-opacity="1" fill-rule="nonzero"/><path fill="#007e40" d="M 316.914062 374.449219 L 316.914062 355.542969 L 298.046875 355.542969 Z M 316.914062 374.449219 " fill-opacity="1" fill-rule="nonzero"/><g clip-path="url(#4dc95a0446)"><path fill="#007e40" d="M 328.359375 355.542969 L 377.898438 355.542969 L 377.898438 405.179688 L 328.359375 405.179688 Z M 328.359375 355.542969 " fill-opacity="1" fill-rule="nonzero"/></g><g clip-path="url(#310efd0117)"><path fill="#ffb300" d="M 255.941406 428.09375 L 305.480469 428.09375 L 305.480469 477.730469 L 255.941406 477.730469 Z M 255.941406 428.09375 " fill-opacity="1" fill-rule="nonzero"/></g><g transform="matrix(1, 0, 0, 1, 404, 341)"><g clip-path="url(#37192a8ca6)"><g fill="#000000" fill-opacity="1"><g transform="translate(0.385335, 38.95557)"><g><path d="M 5.734375 0 L 2.875 0 L 2.875 -20.921875 L 5.734375 -20.921875 Z M 5.734375 0 "/></g></g></g><g fill="#000000" fill-opacity="1"><g transform="translate(8.993111, 38.95557)"><g><path d="M 7.125 -20.921875 L 18.109375 -2.90625 L 18.359375 -2.90625 L 18.25 -11.703125 L 18.25 -20.921875 L 21.0625 -20.921875 L 21.0625 0 L 16.90625 0 L 5.8125 -18.203125 L 5.5625 -18.203125 L 5.65625 -8.765625 L 5.65625 0 L 2.84375 0 L 2.84375 -20.921875 Z M 7.125 -20.921875 "/></g></g></g><g fill="#000000" fill-opacity="1"><g transform="translate(32.901805, 38.95557)"><g><path d="M 8.984375 0 L 8.984375 -20.234375 L 11.84375 -20.234375 L 11.84375 0 Z M 1.265625 -18.5625 L 1.265625 -20.921875 L 19.578125 -20.921875 L 19.578125 -18.5625 Z M 1.265625 -18.5625 "/></g></g></g><g fill="#000000" fill-opacity="1"><g transform="translate(53.717564, 38.95557)"><g><path d="M 2.84375 0 L 2.84375 -20.921875 L 5.65625 -20.921875 L 5.65625 0 Z M 3.359375 0 L 3.359375 -2.359375 L 18.703125 -2.359375 L 18.703125 0 Z M 4.390625 -9.5 L 4.390625 -11.8125 L 18.234375 -11.8125 L 18.234375 -9.5 Z M 3.34375 -18.5625 L 3.34375 -20.921875 L 18.546875 -20.921875 L 18.546875 -18.5625 Z M 3.34375 -18.5625 "/></g></g></g><g fill="#000000" fill-opacity="1"><g transform="translate(74.304221, 38.95557)"><g><path d="M 17.6875 0 L 17.03125 -3.921875 C 16.882812 -4.796875 16.660156 -5.550781 16.359375 -6.1875 C 16.066406 -6.832031 15.617188 -7.328125 15.015625 -7.671875 C 14.410156 -8.015625 13.550781 -8.1875 12.4375 -8.1875 L 4.765625 -8.203125 L 4.765625 -10.4375 L 13.03125 -10.453125 C 14.582031 -10.453125 15.707031 -10.8125 16.40625 -11.53125 C 17.101562 -12.257812 17.453125 -13.222656 17.453125 -14.421875 L 17.453125 -14.765625 C 17.453125 -15.960938 17.101562 -16.898438 16.40625 -17.578125 C 15.71875 -18.253906 14.585938 -18.59375 13.015625 -18.59375 L 4.734375 -18.59375 L 4.734375 -20.921875 L 13.359375 -20.921875 C 15.773438 -20.921875 17.539062 -20.414062 18.65625 -19.40625 C 19.769531 -18.394531 20.328125 -17 20.328125 -15.21875 L 20.328125 -14.828125 C 20.328125 -13.410156 19.96875 -12.265625 19.25 -11.390625 C 18.53125 -10.515625 17.367188 -9.992188 15.765625 -9.828125 L 15.765625 -9.5 L 14.390625 -9.921875 C 15.710938 -9.835938 16.734375 -9.570312 17.453125 -9.125 C 18.171875 -8.675781 18.707031 -8.050781 19.0625 -7.25 C 19.414062 -6.445312 19.695312 -5.484375 19.90625 -4.359375 L 20.703125 0 Z M 2.84375 0 L 2.84375 -20.921875 L 5.640625 -20.921875 L 5.640625 -9.625 L 5.65625 -8.5625 L 5.65625 0 Z M 2.84375 0 "/></g></g></g><g fill="#000000" fill-opacity="1"><g transform="translate(96.609162, 38.95557)"><g><path d="M 7.125 -20.921875 L 18.109375 -2.90625 L 18.359375 -2.90625 L 18.25 -11.703125 L 18.25 -20.921875 L 21.0625 -20.921875 L 21.0625 0 L 16.90625 0 L 5.8125 -18.203125 L 5.5625 -18.203125 L 5.65625 -8.765625 L 5.65625 0 L 2.84375 0 L 2.84375 -20.921875 Z M 7.125 -20.921875 "/></g></g></g><g fill="#000000" fill-opacity="1"><g transform="translate(120.517857, 38.95557)"><g><path d="M 10.109375 0.40625 C 8.867188 0.40625 7.726562 0.300781 6.6875 0.09375 C 5.65625 -0.101562 4.738281 -0.347656 3.9375 -0.640625 C 3.132812 -0.929688 2.460938 -1.210938 1.921875 -1.484375 L 1.625 -4.296875 C 2.625 -3.722656 3.84375 -3.207031 5.28125 -2.75 C 6.726562 -2.300781 8.3125 -2.078125 10.03125 -2.078125 C 12 -2.078125 13.457031 -2.367188 14.40625 -2.953125 C 15.351562 -3.535156 15.828125 -4.421875 15.828125 -5.609375 L 15.828125 -5.765625 C 15.828125 -6.566406 15.640625 -7.207031 15.265625 -7.6875 C 14.898438 -8.175781 14.265625 -8.570312 13.359375 -8.875 C 12.460938 -9.175781 11.222656 -9.429688 9.640625 -9.640625 C 7.660156 -9.910156 6.085938 -10.28125 4.921875 -10.75 C 3.753906 -11.226562 2.921875 -11.859375 2.421875 -12.640625 C 1.921875 -13.429688 1.671875 -14.429688 1.671875 -15.640625 L 1.671875 -15.75 C 1.671875 -17.53125 2.328125 -18.898438 3.640625 -19.859375 C 4.953125 -20.828125 6.96875 -21.3125 9.6875 -21.3125 C 11.539062 -21.3125 13.117188 -21.128906 14.421875 -20.765625 C 15.734375 -20.410156 16.785156 -20.023438 17.578125 -19.609375 L 17.875 -17.015625 C 16.914062 -17.546875 15.773438 -17.992188 14.453125 -18.359375 C 13.140625 -18.734375 11.65625 -18.921875 10 -18.921875 C 8.6875 -18.921875 7.632812 -18.789062 6.84375 -18.53125 C 6.050781 -18.28125 5.476562 -17.910156 5.125 -17.421875 C 4.769531 -16.941406 4.59375 -16.367188 4.59375 -15.703125 L 4.59375 -15.640625 C 4.59375 -14.953125 4.757812 -14.375 5.09375 -13.90625 C 5.425781 -13.4375 6.035156 -13.039062 6.921875 -12.71875 C 7.804688 -12.40625 9.085938 -12.125 10.765625 -11.875 C 12.703125 -11.59375 14.253906 -11.234375 15.421875 -10.796875 C 16.585938 -10.359375 17.429688 -9.75 17.953125 -8.96875 C 18.484375 -8.1875 18.75 -7.132812 18.75 -5.8125 L 18.75 -5.59375 C 18.75 -3.59375 18.03125 -2.09375 16.59375 -1.09375 C 15.15625 -0.09375 12.992188 0.40625 10.109375 0.40625 Z M 10.109375 0.40625 "/></g></g></g><g fill="#000000" fill-opacity="1"><g transform="translate(140.973586, 38.95557)"><g><path d="M 5.71875 0 L 2.84375 0 L 2.84375 -20.921875 L 5.71875 -20.921875 Z M 21.0625 0 L 18.203125 0 L 18.203125 -20.921875 L 21.0625 -20.921875 Z M 4.40625 -11.984375 L 19.40625 -11.984375 L 19.40625 -9.609375 L 4.40625 -9.609375 Z M 4.40625 -11.984375 "/></g></g></g><g fill="#000000" fill-opacity="1"><g transform="translate(164.882281, 38.95557)"><g><path d="M 5.734375 0 L 2.875 0 L 2.875 -20.921875 L 5.734375 -20.921875 Z M 5.734375 0 "/></g></g></g><g fill="#000000" fill-opacity="1"><g transform="translate(173.490057, 38.95557)"><g><path d="M 4.8125 -6.984375 L 4.8125 -9.34375 L 12.625 -9.34375 C 14.238281 -9.34375 15.410156 -9.710938 16.140625 -10.453125 C 16.867188 -11.203125 17.234375 -12.226562 17.234375 -13.53125 L 17.234375 -14.390625 C 17.234375 -15.710938 16.867188 -16.738281 16.140625 -17.46875 C 15.421875 -18.207031 14.253906 -18.578125 12.640625 -18.578125 L 4.75 -18.578125 L 4.75 -20.921875 L 12.671875 -20.921875 C 15.242188 -20.921875 17.128906 -20.34375 18.328125 -19.1875 C 19.523438 -18.03125 20.125 -16.445312 20.125 -14.4375 L 20.125 -13.484375 C 20.125 -11.484375 19.519531 -9.898438 18.3125 -8.734375 C 17.113281 -7.566406 15.226562 -6.984375 12.65625 -6.984375 Z M 2.84375 0 L 2.84375 -20.921875 L 5.65625 -20.921875 L 5.65625 0 Z M 2.84375 0 "/></g></g></g><g fill="#000000" fill-opacity="1"><g transform="translate(0.385335, 82.594194)"><g><path d="M 7.125 -20.921875 L 18.109375 -2.90625 L 18.359375 -2.90625 L 18.25 -11.703125 L 18.25 -20.921875 L 21.0625 -20.921875 L 21.0625 0 L 16.90625 0 L 5.8125 -18.203125 L 5.5625 -18.203125 L 5.65625 -8.765625 L 5.65625 0 L 2.84375 0 L 2.84375 -20.921875 Z M 7.125 -20.921875 "/></g></g></g><g fill="#000000" fill-opacity="1"><g transform="translate(24.294029, 82.594194)"><g><path d="M 2.84375 0 L 2.84375 -20.921875 L 5.65625 -20.921875 L 5.65625 0 Z M 3.359375 0 L 3.359375 -2.359375 L 18.703125 -2.359375 L 18.703125 0 Z M 4.390625 -9.5 L 4.390625 -11.8125 L 18.234375 -11.8125 L 18.234375 -9.5 Z M 3.34375 -18.5625 L 3.34375 -20.921875 L 18.546875 -20.921875 L 18.546875 -18.5625 Z M 3.34375 -18.5625 "/></g></g></g><g fill="#000000" fill-opacity="1"><g transform="translate(44.847975, 82.594194)"><g><path d="M 8.984375 0 L 8.984375 -20.234375 L 11.84375 -20.234375 L 11.84375 0 Z M 1.265625 -18.5625 L 1.265625 -20.921875 L 19.578125 -20.921875 L 19.578125 -18.5625 Z M 1.265625 -18.5625 "/></g></g></g><g fill="#000000" fill-opacity="1"><g transform="translate(65.680089, 82.594194)"><g><path d="M 6.625 0 L 1.15625 -20.921875 L 4.15625 -20.921875 L 8.265625 -4.546875 L 8.75 -2.40625 L 9.0625 -2.40625 L 9.546875 -4.546875 L 13.59375 -20.34375 L 17.765625 -20.34375 L 21.828125 -4.546875 L 22.296875 -2.40625 L 22.625 -2.40625 L 23.09375 -4.546875 L 27.21875 -20.921875 L 30.203125 -20.921875 L 24.75 0 L 20.328125 0 L 17.140625 -12.484375 L 15.828125 -17.984375 L 15.546875 -17.984375 L 14.21875 -12.484375 L 11.0625 0 Z M 6.625 0 "/></g></g></g><g fill="#000000" fill-opacity="1"><g transform="translate(96.396457, 82.594194)"><g><path d="M 11.78125 0.4375 C 8.5625 0.4375 6.09375 -0.394531 4.375 -2.0625 C 2.664062 -3.726562 1.8125 -6.101562 1.8125 -9.1875 L 1.8125 -11.75 C 1.8125 -14.832031 2.664062 -17.203125 4.375 -18.859375 C 6.09375 -20.523438 8.5625 -21.359375 11.78125 -21.359375 C 15.019531 -21.359375 17.492188 -20.523438 19.203125 -18.859375 C 20.910156 -17.203125 21.765625 -14.832031 21.765625 -11.75 L 21.765625 -9.1875 C 21.765625 -6.101562 20.910156 -3.726562 19.203125 -2.0625 C 17.492188 -0.394531 15.019531 0.4375 11.78125 0.4375 Z M 11.78125 -1.9375 C 14.101562 -1.9375 15.859375 -2.566406 17.046875 -3.828125 C 18.234375 -5.085938 18.828125 -6.859375 18.828125 -9.140625 L 18.828125 -11.796875 C 18.828125 -14.078125 18.234375 -15.84375 17.046875 -17.09375 C 15.859375 -18.351562 14.101562 -18.984375 11.78125 -18.984375 C 9.46875 -18.984375 7.71875 -18.351562 6.53125 -17.09375 C 5.351562 -15.84375 4.765625 -14.078125 4.765625 -11.796875 L 4.765625 -9.140625 C 4.765625 -6.859375 5.351562 -5.085938 6.53125 -3.828125 C 7.71875 -2.566406 9.46875 -1.9375 11.78125 -1.9375 Z M 11.78125 -1.9375 "/></g></g></g><g fill="#000000" fill-opacity="1"><g transform="translate(119.977834, 82.594194)"><g><path d="M 17.6875 0 L 17.03125 -3.921875 C 16.882812 -4.796875 16.660156 -5.550781 16.359375 -6.1875 C 16.066406 -6.832031 15.617188 -7.328125 15.015625 -7.671875 C 14.410156 -8.015625 13.550781 -8.1875 12.4375 -8.1875 L 4.765625 -8.203125 L 4.765625 -10.4375 L 13.03125 -10.453125 C 14.582031 -10.453125 15.707031 -10.8125 16.40625 -11.53125 C 17.101562 -12.257812 17.453125 -13.222656 17.453125 -14.421875 L 17.453125 -14.765625 C 17.453125 -15.960938 17.101562 -16.898438 16.40625 -17.578125 C 15.71875 -18.253906 14.585938 -18.59375 13.015625 -18.59375 L 4.734375 -18.59375 L 4.734375 -20.921875 L 13.359375 -20.921875 C 15.773438 -20.921875 17.539062 -20.414062 18.65625 -19.40625 C 19.769531 -18.394531 20.328125 -17 20.328125 -15.21875 L 20.328125 -14.828125 C 20.328125 -13.410156 19.96875 -12.265625 19.25 -11.390625 C 18.53125 -10.515625 17.367188 -9.992188 15.765625 -9.828125 L 15.765625 -9.5 L 14.390625 -9.921875 C 15.710938 -9.835938 16.734375 -9.570312 17.453125 -9.125 C 18.171875 -8.675781 18.707031 -8.050781 19.0625 -7.25 C 19.414062 -6.445312 19.695312 -5.484375 19.90625 -4.359375 L 20.703125 0 Z M 2.84375 0 L 2.84375 -20.921875 L 5.640625 -20.921875 L 5.640625 -9.625 L 5.65625 -8.5625 L 5.65625 0 Z M 2.84375 0 "/></g></g></g><g fill="#000000" fill-opacity="1"><g transform="translate(142.282775, 82.594194)"><g><path d="M 17.421875 0 L 8.390625 -9.53125 L 5.4375 -9.53125 L 5.4375 -11.84375 L 8.421875 -11.84375 L 17.296875 -20.921875 L 20.78125 -20.921875 L 10.5625 -10.421875 L 10.546875 -11.171875 L 21.03125 0 Z M 2.84375 0 L 2.84375 -20.921875 L 5.671875 -20.921875 L 5.671875 0 Z M 2.84375 0 "/></g></g></g><g fill="#000000" fill-opacity="1"><g transform="translate(164.096801, 82.594194)"><g><path d="M 5.734375 0 L 2.875 0 L 2.875 -20.921875 L 5.734375 -20.921875 Z M 5.734375 0 "/></g></g></g><g fill="#000000" fill-opacity="1"><g transform="translate(172.704577, 82.594194)"><g><path d="M 7.125 -20.921875 L 18.109375 -2.90625 L 18.359375 -2.90625 L 18.25 -11.703125 L 18.25 -20.921875 L 21.0625 -20.921875 L 21.0625 0 L 16.90625 0 L 5.8125 -18.203125 L 5.5625 -18.203125 L 5.65625 -8.765625 L 5.65625 0 L 2.84375 0 L 2.84375 -20.921875 Z M 7.125 -20.921875 "/></g></g></g><g fill="#000000" fill-opacity="1"><g transform="translate(196.613272, 82.594194)"><g><path d="M 11.03125 0.4375 C 9.0625 0.4375 7.394531 0.0703125 6.03125 -0.65625 C 4.664062 -1.394531 3.617188 -2.46875 2.890625 -3.875 C 2.171875 -5.289062 1.8125 -7.003906 1.8125 -9.015625 L 1.8125 -11.65625 C 1.8125 -14.726562 2.6875 -17.113281 4.4375 -18.8125 C 6.195312 -20.507812 8.765625 -21.359375 12.140625 -21.359375 C 13.359375 -21.359375 14.460938 -21.257812 15.453125 -21.0625 C 16.441406 -20.863281 17.320312 -20.613281 18.09375 -20.3125 C 18.863281 -20.019531 19.519531 -19.703125 20.0625 -19.359375 L 20.34375 -16.828125 C 19.394531 -17.378906 18.273438 -17.867188 16.984375 -18.296875 C 15.703125 -18.722656 14.207031 -18.9375 12.5 -18.9375 C 9.925781 -18.9375 7.992188 -18.304688 6.703125 -17.046875 C 5.410156 -15.785156 4.765625 -13.984375 4.765625 -11.640625 L 4.765625 -9.03125 C 4.765625 -6.78125 5.363281 -5.039062 6.5625 -3.8125 C 7.769531 -2.582031 9.550781 -1.96875 11.90625 -1.96875 C 13.050781 -1.96875 14.039062 -2.140625 14.875 -2.484375 C 15.707031 -2.828125 16.390625 -3.28125 16.921875 -3.84375 C 17.460938 -4.414062 17.859375 -5.039062 18.109375 -5.71875 L 18.109375 -10.28125 L 18.546875 -9.296875 L 12.09375 -9.28125 L 12.09375 -11.609375 L 20.875 -11.609375 L 20.875 -3.84375 L 18.078125 -3.859375 C 17.878906 -3.117188 17.503906 -2.414062 16.953125 -1.75 C 16.410156 -1.09375 15.65625 -0.5625 14.6875 -0.15625 C 13.71875 0.238281 12.5 0.4375 11.03125 0.4375 Z M 18.21875 -4.578125 L 20.875 -4.578125 L 20.875 0 L 18.078125 0 Z M 18.21875 -4.578125 "/></g></g></g><g fill="#000000" fill-opacity="1"><g transform="translate(0.385335, 126.232817)"><g><path d="M 2.84375 0 L 2.84375 -20.921875 L 5.671875 -20.921875 L 5.671875 0 Z M 4.390625 -8.640625 L 4.390625 -11.015625 L 17.84375 -11.015625 L 17.84375 -8.640625 Z M 3.34375 -18.5625 L 3.34375 -20.921875 L 18.125 -20.921875 L 18.125 -18.5625 Z M 3.34375 -18.5625 "/></g></g></g><g fill="#000000" fill-opacity="1"><g transform="translate(19.990121, 126.232817)"><g><path d="M 11.78125 0.4375 C 8.5625 0.4375 6.09375 -0.394531 4.375 -2.0625 C 2.664062 -3.726562 1.8125 -6.101562 1.8125 -9.1875 L 1.8125 -11.75 C 1.8125 -14.832031 2.664062 -17.203125 4.375 -18.859375 C 6.09375 -20.523438 8.5625 -21.359375 11.78125 -21.359375 C 15.019531 -21.359375 17.492188 -20.523438 19.203125 -18.859375 C 20.910156 -17.203125 21.765625 -14.832031 21.765625 -11.75 L 21.765625 -9.1875 C 21.765625 -6.101562 20.910156 -3.726562 19.203125 -2.0625 C 17.492188 -0.394531 15.019531 0.4375 11.78125 0.4375 Z M 11.78125 -1.9375 C 14.101562 -1.9375 15.859375 -2.566406 17.046875 -3.828125 C 18.234375 -5.085938 18.828125 -6.859375 18.828125 -9.140625 L 18.828125 -11.796875 C 18.828125 -14.078125 18.234375 -15.84375 17.046875 -17.09375 C 15.859375 -18.351562 14.101562 -18.984375 11.78125 -18.984375 C 9.46875 -18.984375 7.71875 -18.351562 6.53125 -17.09375 C 5.351562 -15.84375 4.765625 -14.078125 4.765625 -11.796875 L 4.765625 -9.140625 C 4.765625 -6.859375 5.351562 -5.085938 6.53125 -3.828125 C 7.71875 -2.566406 9.46875 -1.9375 11.78125 -1.9375 Z M 11.78125 -1.9375 "/></g></g></g><g fill="#000000" fill-opacity="1"><g transform="translate(43.571497, 126.232817)"><g><path d="M 17.6875 0 L 17.03125 -3.921875 C 16.882812 -4.796875 16.660156 -5.550781 16.359375 -6.1875 C 16.066406 -6.832031 15.617188 -7.328125 15.015625 -7.671875 C 14.410156 -8.015625 13.550781 -8.1875 12.4375 -8.1875 L 4.765625 -8.203125 L 4.765625 -10.4375 L 13.03125 -10.453125 C 14.582031 -10.453125 15.707031 -10.8125 16.40625 -11.53125 C 17.101562 -12.257812 17.453125 -13.222656 17.453125 -14.421875 L 17.453125 -14.765625 C 17.453125 -15.960938 17.101562 -16.898438 16.40625 -17.578125 C 15.71875 -18.253906 14.585938 -18.59375 13.015625 -18.59375 L 4.734375 -18.59375 L 4.734375 -20.921875 L 13.359375 -20.921875 C 15.773438 -20.921875 17.539062 -20.414062 18.65625 -19.40625 C 19.769531 -18.394531 20.328125 -17 20.328125 -15.21875 L 20.328125 -14.828125 C 20.328125 -13.410156 19.96875 -12.265625 19.25 -11.390625 C 18.53125 -10.515625 17.367188 -9.992188 15.765625 -9.828125 L 15.765625 -9.5 L 14.390625 -9.921875 C 15.710938 -9.835938 16.734375 -9.570312 17.453125 -9.125 C 18.171875 -8.675781 18.707031 -8.050781 19.0625 -7.25 C 19.414062 -6.445312 19.695312 -5.484375 19.90625 -4.359375 L 20.703125 0 Z M 2.84375 0 L 2.84375 -20.921875 L 5.640625 -20.921875 L 5.640625 -9.625 L 5.65625 -8.5625 L 5.65625 0 Z M 2.84375 0 "/></g></g></g><g fill="#000000" fill-opacity="1"><g transform="translate(65.7128, 126.232817)"><g><path d="M 11.765625 0.4375 C 8.648438 0.4375 6.351562 -0.328125 4.875 -1.859375 C 3.394531 -3.398438 2.65625 -5.644531 2.65625 -8.59375 L 2.65625 -20.921875 L 5.515625 -20.921875 L 5.515625 -8.5625 C 5.515625 -6.4375 6.007812 -4.804688 7 -3.671875 C 8 -2.546875 9.585938 -1.984375 11.765625 -1.984375 C 13.953125 -1.984375 15.535156 -2.546875 16.515625 -3.671875 C 17.503906 -4.804688 18 -6.4375 18 -8.5625 L 18 -20.921875 L 20.875 -20.921875 L 20.875 -8.59375 C 20.875 -5.644531 20.132812 -3.398438 18.65625 -1.859375 C 17.1875 -0.328125 14.890625 0.4375 11.765625 0.4375 Z M 11.765625 0.4375 "/></g></g></g><g fill="#000000" fill-opacity="1"><g transform="translate(88.983256, 126.232817)"><g><path d="M 2.359375 0 L 3.515625 -20.921875 L 7.875 -20.921875 L 14.046875 -5.609375 L 14.28125 -5.609375 L 20.46875 -20.921875 L 24.828125 -20.921875 L 25.984375 0 L 23.171875 0 L 22.71875 -9.09375 L 22.3125 -18 L 21.96875 -18 L 15.703125 -2.5 L 12.65625 -2.5 L 6.390625 -18 L 6 -18 L 5.609375 -9.09375 L 5.171875 0 Z M 2.359375 0 "/></g></g></g></g></g><g transform="matrix(1, 0, 0, 1, 123, 251)"><g clip-path="url(#eb74747e0d)"><g fill="#000000" fill-opacity="1"><g transform="translate(0.635285, 72.413826)"><g><path d="M 13.859375 0 L 3.96875 0 L 3.96875 -38.078125 L 13.859375 -38.078125 Z M 13.859375 0 "/></g></g></g><g fill="#000000" fill-opacity="1"><g transform="translate(18.453891, 72.413826)"><g><path d="M 17.640625 -38.078125 L 31.28125 -10.421875 L 31.765625 -10.421875 L 31.40625 -25.359375 L 31.40625 -38.078125 L 40.96875 -38.078125 L 40.96875 0 L 27.765625 0 L 13.640625 -28.421875 L 13.203125 -28.421875 L 13.53125 -13.140625 L 13.53125 0 L 3.9375 0 L 3.9375 -38.078125 Z M 17.640625 -38.078125 "/></g></g></g><g fill="#000000" fill-opacity="1"><g transform="translate(63.387764, 72.413826)"><g><path d="M 3.9375 0 L 3.9375 -38.078125 L 13.703125 -38.078125 L 13.703125 0 Z M 9.265625 -12.96875 L 9.265625 -21.03125 L 33.703125 -21.03125 L 33.703125 -12.96875 Z M 5.359375 -30 L 5.359375 -38.078125 L 34.234375 -38.078125 L 34.234375 -30 Z M 5.359375 -30 "/></g></g></g><g fill="#000000" fill-opacity="1"><g transform="translate(100.038066, 72.413826)"><g/></g></g><g fill="#000000" fill-opacity="1"><g transform="translate(111.283862, 72.413826)"><g><path d="M 2.40625 0 L 2.40625 -4.921875 L 14.453125 -13.921875 C 16.492188 -15.484375 18.273438 -16.929688 19.796875 -18.265625 C 21.316406 -19.597656 22.503906 -20.941406 23.359375 -22.296875 C 24.210938 -23.660156 24.640625 -25.164062 24.640625 -26.8125 L 24.640625 -27.078125 C 24.640625 -28.609375 24.300781 -29.914062 23.625 -31 C 22.945312 -32.082031 21.921875 -32.910156 20.546875 -33.484375 C 19.179688 -34.066406 17.4375 -34.359375 15.3125 -34.359375 C 12.789062 -34.359375 10.445312 -33.96875 8.28125 -33.1875 C 6.113281 -32.414062 4.21875 -31.535156 2.59375 -30.546875 L 3.125 -35.28125 C 4.082031 -35.851562 5.207031 -36.398438 6.5 -36.921875 C 7.789062 -37.453125 9.242188 -37.894531 10.859375 -38.25 C 12.484375 -38.613281 14.265625 -38.796875 16.203125 -38.796875 C 20.710938 -38.796875 24.132812 -37.828125 26.46875 -35.890625 C 28.800781 -33.953125 29.96875 -31.1875 29.96875 -27.59375 L 29.96875 -27.234375 C 29.96875 -25.109375 29.515625 -23.203125 28.609375 -21.515625 C 27.710938 -19.828125 26.425781 -18.191406 24.75 -16.609375 C 23.070312 -15.035156 21.0625 -13.375 18.71875 -11.625 L 9.46875 -4.625 L 9.46875 -3.421875 L 7.328125 -4.34375 L 30.65625 -4.34375 L 30.65625 0 Z M 2.40625 0 "/></g></g></g><g fill="#000000" fill-opacity="1"><g transform="translate(144.060477, 72.413826)"><g><path d="M 19.78125 0.796875 C 14.414062 0.796875 10.351562 -0.6875 7.59375 -3.65625 C 4.832031 -6.625 3.453125 -10.878906 3.453125 -16.421875 L 3.453125 -21.625 C 3.453125 -27.175781 4.828125 -31.441406 7.578125 -34.421875 C 10.328125 -37.398438 14.394531 -38.890625 19.78125 -38.890625 C 25.1875 -38.890625 29.265625 -37.398438 32.015625 -34.421875 C 34.765625 -31.441406 36.140625 -27.175781 36.140625 -21.625 L 36.140625 -16.421875 C 36.140625 -10.878906 34.765625 -6.625 32.015625 -3.65625 C 29.265625 -0.6875 25.1875 0.796875 19.78125 0.796875 Z M 19.78125 -3.515625 C 23.519531 -3.515625 26.296875 -4.617188 28.109375 -6.828125 C 29.929688 -9.046875 30.84375 -12.203125 30.84375 -16.296875 L 30.84375 -21.71875 C 30.84375 -25.832031 29.929688 -29 28.109375 -31.21875 C 26.296875 -33.445312 23.519531 -34.5625 19.78125 -34.5625 C 16.070312 -34.5625 13.3125 -33.445312 11.5 -31.21875 C 9.695312 -29 8.796875 -25.832031 8.796875 -21.71875 L 8.796875 -16.296875 C 8.796875 -12.203125 9.703125 -9.046875 11.515625 -6.828125 C 13.335938 -4.617188 16.09375 -3.515625 19.78125 -3.515625 Z M 19.78125 -3.515625 "/></g></g></g><g fill="#000000" fill-opacity="1"><g transform="translate(183.094453, 72.413826)"><g><path d="M 2.40625 0 L 2.40625 -4.921875 L 14.453125 -13.921875 C 16.492188 -15.484375 18.273438 -16.929688 19.796875 -18.265625 C 21.316406 -19.597656 22.503906 -20.941406 23.359375 -22.296875 C 24.210938 -23.660156 24.640625 -25.164062 24.640625 -26.8125 L 24.640625 -27.078125 C 24.640625 -28.609375 24.300781 -29.914062 23.625 -31 C 22.945312 -32.082031 21.921875 -32.910156 20.546875 -33.484375 C 19.179688 -34.066406 17.4375 -34.359375 15.3125 -34.359375 C 12.789062 -34.359375 10.445312 -33.96875 8.28125 -33.1875 C 6.113281 -32.414062 4.21875 -31.535156 2.59375 -30.546875 L 3.125 -35.28125 C 4.082031 -35.851562 5.207031 -36.398438 6.5 -36.921875 C 7.789062 -37.453125 9.242188 -37.894531 10.859375 -38.25 C 12.484375 -38.613281 14.265625 -38.796875 16.203125 -38.796875 C 20.710938 -38.796875 24.132812 -37.828125 26.46875 -35.890625 C 28.800781 -33.953125 29.96875 -31.1875 29.96875 -27.59375 L 29.96875 -27.234375 C 29.96875 -25.109375 29.515625 -23.203125 28.609375 -21.515625 C 27.710938 -19.828125 26.425781 -18.191406 24.75 -16.609375 C 23.070312 -15.035156 21.0625 -13.375 18.71875 -11.625 L 9.46875 -4.625 L 9.46875 -3.421875 L 7.328125 -4.34375 L 30.65625 -4.34375 L 30.65625 0 Z M 2.40625 0 "/></g></g></g><g fill="#000000" fill-opacity="1"><g transform="translate(215.930683, 72.413826)"><g><path d="M 19.9375 0.78125 C 16.476562 0.78125 13.503906 0.128906 11.015625 -1.171875 C 8.535156 -2.472656 6.628906 -4.378906 5.296875 -6.890625 C 3.972656 -9.410156 3.3125 -12.476562 3.3125 -16.09375 L 3.3125 -20.921875 C 3.3125 -26.554688 4.757812 -30.9375 7.65625 -34.0625 C 10.5625 -37.195312 14.820312 -38.765625 20.4375 -38.765625 C 23.257812 -38.765625 25.644531 -38.488281 27.59375 -37.9375 C 29.539062 -37.394531 31.1875 -36.785156 32.53125 -36.109375 L 33.109375 -31.4375 C 32.054688 -32.007812 30.960938 -32.515625 29.828125 -32.953125 C 28.691406 -33.390625 27.414062 -33.738281 26 -34 C 24.59375 -34.257812 22.96875 -34.390625 21.125 -34.390625 C 16.9375 -34.390625 13.78125 -33.234375 11.65625 -30.921875 C 9.539062 -28.617188 8.484375 -25.265625 8.484375 -20.859375 L 8.484375 -15.828125 C 8.484375 -13.140625 8.945312 -10.878906 9.875 -9.046875 C 10.800781 -7.222656 12.125 -5.847656 13.84375 -4.921875 C 15.5625 -4.003906 17.625 -3.546875 20.03125 -3.546875 C 23.28125 -3.546875 25.722656 -4.28125 27.359375 -5.75 C 29.003906 -7.21875 29.828125 -9.164062 29.828125 -11.59375 L 29.828125 -12.609375 C 29.828125 -14.171875 29.515625 -15.53125 28.890625 -16.6875 C 28.265625 -17.84375 27.28125 -18.734375 25.9375 -19.359375 C 24.59375 -19.984375 22.820312 -20.296875 20.625 -20.296875 C 18.570312 -20.296875 16.742188 -19.957031 15.140625 -19.28125 C 13.546875 -18.601562 12.195312 -17.664062 11.09375 -16.46875 C 10 -15.28125 9.148438 -13.921875 8.546875 -12.390625 L 7.921875 -16.171875 L 8.765625 -16.171875 C 9.253906 -17.679688 10.0625 -19.054688 11.1875 -20.296875 C 12.3125 -21.546875 13.78125 -22.535156 15.59375 -23.265625 C 17.414062 -24.003906 19.609375 -24.375 22.171875 -24.375 C 26.378906 -24.375 29.570312 -23.351562 31.75 -21.3125 C 33.925781 -19.28125 35.015625 -16.40625 35.015625 -12.6875 L 35.015625 -11.5 C 35.015625 -7.6875 33.726562 -4.6875 31.15625 -2.5 C 28.582031 -0.3125 24.84375 0.78125 19.9375 0.78125 Z M 19.9375 0.78125 "/></g></g></g></g></g></svg>