<svg xmlns="http://www.w3.org/2000/svg" width="300" height="150" viewBox="120 350 260 130" preserveAspectRatio="xMidYMid meet" version="1.0">
  <g id="Geometric_Squares">
    <path fill="#f8231d" d="M 145.117188 414.332031 L 138.402344 414.332031 L 132.800781 408.714844 L 132.800781 414.332031 L 123.640625 414.332031 L 123.640625 392.816406 Z M 145.117188 414.332031 " fill-opacity="1" fill-rule="nonzero"/>
    <path fill="#f8231d" d="M 145.117188 353.242188 L 123.640625 374.769531 L 123.640625 353.242188 L 132.800781 353.242188 L 132.800781 358.863281 L 138.402344 353.242188 Z M 145.117188 353.242188 " fill-opacity="1" fill-rule="nonzero"/>
    <path fill="#f8231d" d="M 184.621094 353.242188 L 184.621094 374.769531 L 163.144531 353.242188 L 169.851562 353.242188 L 175.460938 358.863281 L 175.460938 353.242188 Z M 184.621094 353.242188 " fill-opacity="1" fill-rule="nonzero"/>
    <path fill="#ffb300" d="M 151.386719 353.242188 L 123.640625 381.042969 L 123.640625 386.542969 L 151.386719 414.332031 L 156.875 414.332031 L 184.621094 386.542969 L 184.621094 381.042969 L 156.875 353.242188 Z M 154.03125 410.527344 L 127.246094 383.683594 L 154.03125 356.84375 L 180.816406 383.683594 Z M 154.03125 410.527344 " fill-opacity="1" fill-rule="nonzero"/>
    <path fill="#f8231d" d="M 184.621094 392.816406 L 184.621094 414.332031 L 175.460938 414.332031 L 175.460938 408.714844 L 169.863281 414.332031 L 163.144531 414.332031 Z M 184.621094 392.816406 " fill-opacity="1" fill-rule="nonzero"/>
    <path fill="#007e40" d="M 154.027344 402.917969 L 134.835938 383.6875 L 154.027344 364.457031 L 173.222656 383.6875 Z M 154.027344 402.917969 " fill-opacity="1" fill-rule="nonzero"/>

    <path fill="#f8231d" d="M 196.160156 353.34375 L 245.695312 353.34375 L 245.695312 402.976562 L 196.160156 402.976562 Z M 196.160156 353.34375 " fill-opacity="1" fill-rule="nonzero"/>

    <path fill="#f8231d" d="M 338.390625 477.730469 L 331.675781 477.730469 L 326.074219 472.109375 L 326.074219 477.730469 L 316.914062 477.730469 L 316.914062 456.210938 Z M 338.390625 477.730469 " fill-opacity="1" fill-rule="nonzero"/>
    <path fill="#f8231d" d="M 338.390625 416.636719 L 316.914062 438.164062 L 316.914062 416.636719 L 326.074219 416.636719 L 326.074219 422.257812 L 331.675781 416.636719 Z M 338.390625 416.636719 " fill-opacity="1" fill-rule="nonzero"/>
    <path fill="#f8231d" d="M 377.898438 416.636719 L 377.898438 438.164062 L 356.417969 416.636719 L 363.128906 416.636719 L 368.738281 422.257812 L 368.738281 416.636719 Z M 377.898438 416.636719 " fill-opacity="1" fill-rule="nonzero"/>
    <path fill="#ffb300" d="M 344.660156 416.636719 L 316.914062 444.4375 L 316.914062 449.9375 L 344.660156 477.730469 L 350.152344 477.730469 L 377.898438 449.9375 L 377.898438 444.4375 L 350.152344 416.636719 Z M 347.304688 473.925781 L 320.519531 447.078125 L 347.304688 420.238281 L 374.089844 447.078125 Z M 347.304688 473.925781 " fill-opacity="1" fill-rule="nonzero"/>
    <path fill="#f8231d" d="M 377.898438 456.210938 L 377.898438 477.730469 L 368.738281 477.730469 L 368.738281 472.109375 L 363.136719 477.730469 L 356.417969 477.730469 Z M 377.898438 456.210938 " fill-opacity="1" fill-rule="nonzero"/>
    <path fill="#007e40" d="M 347.304688 466.316406 L 328.109375 447.085938 L 347.304688 427.855469 L 366.496094 447.085938 Z M 347.304688 466.316406 " fill-opacity="1" fill-rule="nonzero"/>
    
    <path fill="#007e40" d="M 123.75 425.894531 L 173.289062 425.894531 L 173.289062 475.527344 L 123.75 475.527344 Z M 123.75 425.894531 " fill-opacity="1" fill-rule="nonzero"/>

    <path fill="#f8231d" d="M 286.433594 369.40625 L 269.777344 386.085938 L 286.433594 402.773438 L 303.078125 386.085938 Z M 286.433594 369.40625 " fill-opacity="1" fill-rule="nonzero"/>
    <path fill="#ffb300" d="M 316.914062 381.484375 L 291.027344 355.542969 L 282.050781 355.542969 L 269.851562 367.769531 L 269.851562 355.542969 L 263.195312 355.542969 L 263.195312 362.636719 L 256.113281 355.542969 L 255.941406 355.542969 L 255.941406 390.699219 L 281.832031 416.636719 L 290.804688 416.636719 L 303.007812 404.410156 L 303.007812 416.636719 L 309.664062 416.636719 L 309.664062 409.542969 L 316.742188 416.636719 L 316.914062 416.636719 Z M 260.609375 377.042969 C 259.179688 377.042969 258.023438 375.882812 258.023438 374.449219 C 258.023438 373.019531 259.179688 371.859375 260.609375 371.859375 C 262.035156 371.859375 263.195312 373.019531 263.195312 374.449219 C 263.195312 375.882812 262.035156 377.042969 260.609375 377.042969 Z M 286.433594 409.375 L 263.199219 386.085938 L 286.433594 362.804688 L 309.667969 386.085938 Z M 312.25 400.320312 C 310.820312 400.320312 309.664062 399.160156 309.664062 397.730469 C 309.664062 396.300781 310.820312 395.140625 312.25 395.140625 C 313.675781 395.140625 314.835938 396.300781 314.835938 397.730469 C 314.835938 399.160156 313.675781 400.320312 312.25 400.320312 Z M 312.25 400.320312 " fill-opacity="1" fill-rule="nonzero"/>
    <path fill="#007e40" d="M 255.941406 397.730469 L 255.941406 416.636719 L 274.8125 416.636719 Z M 255.941406 397.730469 " fill-opacity="1" fill-rule="nonzero"/>
    <path fill="#007e40" d="M 316.914062 374.449219 L 316.914062 355.542969 L 298.046875 355.542969 Z M 316.914062 374.449219 " fill-opacity="1" fill-rule="nonzero"/>

    <path fill="#f8231d" d="M 245.695312 462.859375 L 245.695312 456.230469 L 226.4375 475.527344 L 233.054688 475.527344 Z M 245.695312 462.859375 " fill-opacity="1" fill-rule="nonzero"/>
    <path fill="#ffb300" d="M 219.824219 475.527344 L 245.695312 449.601562 L 245.695312 440.359375 L 219.824219 414.433594 L 210.597656 414.433594 L 184.722656 440.359375 L 184.722656 449.601562 L 210.597656 475.527344 Z M 215.210938 416.636719 L 243.5 444.980469 L 215.210938 473.324219 L 186.921875 444.980469 Z M 215.210938 416.636719 " fill-opacity="1" fill-rule="nonzero"/>
    <path fill="#f8231d" d="M 203.984375 414.433594 L 197.367188 414.433594 L 184.722656 427.101562 L 184.722656 433.730469 Z M 203.984375 414.433594 " fill-opacity="1" fill-rule="nonzero"/>
    <path fill="#007e40" d="M 245.695312 433.730469 L 245.695312 414.433594 L 226.4375 414.433594 Z M 245.695312 433.730469 " fill-opacity="1" fill-rule="nonzero"/>
    <path fill="#007e40" d="M 184.722656 456.230469 L 184.722656 475.527344 L 203.984375 475.527344 Z M 184.722656 456.230469 " fill-opacity="1" fill-rule="nonzero"/>
    <path fill="#007e40" d="M 328.359375 355.542969 L 377.898438 355.542969 L 377.898438 405.179688 L 328.359375 405.179688 Z M 328.359375 355.542969 " fill-opacity="1" fill-rule="nonzero"/>

    <path fill="#ffb300" d="M 255.941406 428.09375 L 305.480469 428.09375 L 305.480469 477.730469 L 255.941406 477.730469 Z M 255.941406 428.09375 " fill-opacity="1" fill-rule="nonzero"/>
  </g>
</svg>